<?xml version="1.0" encoding="UTF-8" standalone="no"?>
<svg
   xmlns:osb="http://www.openswatchbook.org/uri/2009/osb"
   xmlns:dc="http://purl.org/dc/elements/1.1/"
   xmlns:cc="http://creativecommons.org/ns#"
   xmlns:rdf="http://www.w3.org/1999/02/22-rdf-syntax-ns#"
   xmlns:svg="http://www.w3.org/2000/svg"
   xmlns="http://www.w3.org/2000/svg"
   xmlns:sodipodi="http://sodipodi.sourceforge.net/DTD/sodipodi-0.dtd"
   xmlns:inkscape="http://www.inkscape.org/namespaces/inkscape"
   width="200"
   height="200"
   viewBox="0 0 200 200"
   id="svg2"
   version="1.1"
   inkscape:version="0.91 r13725"
   sodipodi:docname="logo.svg">
  <metadata
     id="metadata88">
    <rdf:RDF>
      <cc:Work
         rdf:about="">
        <dc:format>image/svg+xml</dc:format>
        <dc:type
           rdf:resource="http://purl.org/dc/dcmitype/StillImage" />
        <dc:title></dc:title>
      </cc:Work>
    </rdf:RDF>
  </metadata>
  <defs
     id="defs86">
    <linearGradient
       id="linearGradient5807"
       osb:paint="solid">
      <stop
         style="stop-color:#0064ff;stop-opacity:1;"
         offset="0"
         id="stop5809" />
    </linearGradient>
    <linearGradient
       id="linearGradient5791"
       osb:paint="solid">
      <stop
         style="stop-color:#0063ff;stop-opacity:1;"
         offset="0"
         id="stop5793" />
    </linearGradient>
  </defs>
  <sodipodi:namedview
     pagecolor="#ffffff"
     bordercolor="#666666"
     borderopacity="1"
     objecttolerance="10"
     gridtolerance="10"
     guidetolerance="10"
     inkscape:pageopacity="0"
     inkscape:pageshadow="2"
     inkscape:window-width="1920"
     inkscape:window-height="1018"
     id="namedview84"
     showgrid="false"
     inkscape:zoom="6.675088"
     inkscape:cx="97.513567"
     inkscape:cy="47.795343"
     inkscape:window-x="1432"
     inkscape:window-y="-8"
     inkscape:window-maximized="1"
     inkscape:current-layer="svg2" />
  <g
     class="logo-lettering"
     style="font-stretch:condensed;font-size:35px;line-height:125%;font-family:'Gill Sans MT Condensed';-inkscape-font-specification:'Gill Sans MT Condensed, Condensed';letter-spacing:0;word-spacing:0;fill:#f6fcff;fill-opacity:1"
     font-stretch="condensed"
     font-size="35"
     letter-spacing="0"
     word-spacing="0"
     id="g4"
     transform="translate(-0.29962152,5.5429981)">
    <path
       d="m 26.692,189.378 -5.007,-23.686 3.16,0 2.77,15.705 0.068,0 3.145,-15.705 2.17,0 2.974,16.064 0.068,0 2.94,-16.064 3.16,0 -5.006,23.686 -2.068,0 -3.162,-15.637 -0.068,0 -3.076,15.639 -2.068,0 z m 15.328,-0.308 4.41,-23.515 3.128,0 4.375,23.516 -2.905,0 -0.838,-5.177 -4.34,0 -0.923,5.178 -2.907,0 z m 4.274,-7.98 3.367,0 -1.64,-9.793 -0.085,0 -1.64,9.793 z m 10.954,7.98 0,-20.575 -3.605,0 0,-2.803 10.22,0 0,2.803 -3.59,0 0,20.576 -3.025,0 z m 18.012,-4.17 0,3.162 q -1.69,1.316 -3.57,1.316 -3.008,0 -4.65,-3.076 -1.64,-3.076 -1.64,-8.784 0,-5.708 1.64,-8.92 1.66,-3.214 4.718,-3.214 1.47,0 3.23,1.214 l 0,3.042 q -1.504,-1.47 -3.008,-1.47 -1.812,0 -2.632,2.136 -0.803,2.12 -0.803,7.075 0,4.906 0.82,7.06 0.82,2.153 2.717,2.153 1.3,0 3.18,-1.692 z m 2.77,4.17 0,-23.378 3.008,0 0,10.288 4.443,0 0,-10.288 3.01,0 0,23.38 -3.01,0 0,-10.29 -4.441,0 0,10.29 -3.01,0 z m 14.63,0 0,-23.378 2.51,0 q 3.01,0 4.58,1.777 1.59,1.76 1.59,4.7 0,3.33 -2.426,5.006 1.88,1.333 3.195,7.092 l 1.076,4.803 -3.145,0 -0.904,-4.032 q -0.974,-4.24 -1.692,-5.384 -0.718,-1.162 -1.778,-1.042 l 0,10.46 -3.006,0 z m 3.006,-13.26 0.137,0 q 2.53,0 2.53,-3.54 0,-3.758 -2.667,-3.775 l 0,7.314 z m 15.194,13.568 q -2.77,0 -4.512,-3.195 -1.744,-3.213 -1.744,-8.802 0,-5.28 1.64,-8.63 1.66,-3.366 4.615,-3.366 2.87,0 4.562,3.35 1.71,3.35 1.71,8.647 0,5.64 -1.795,8.82 -1.795,3.178 -4.478,3.178 z m -0.035,-21.208 q -1.487,0 -2.29,2.46 -0.786,2.445 -0.786,6.75 0,4.462 0.82,6.837 0.82,2.376 2.323,2.376 1.436,0 2.256,-2.427 0.837,-2.427 0.837,-6.785 0,-4.425 -0.838,-6.818 -0.838,-2.392 -2.325,-2.392 z m 18.508,16.73 0,3.162 q -1.69,1.316 -3.57,1.316 -3.01,0 -4.65,-3.076 -1.64,-3.076 -1.64,-8.784 0,-5.708 1.64,-8.92 1.658,-3.214 4.717,-3.214 1.47,0 3.23,1.214 l 0,3.042 q -1.504,-1.47 -3.008,-1.47 -1.81,0 -2.632,2.136 -0.803,2.12 -0.803,7.075 0,4.906 0.82,7.06 0.82,2.153 2.718,2.153 1.3,0 3.178,-1.692 z m 2.803,4.17 0,-23.378 3.008,0 0,23.38 -3.008,0 z m 7.28,0 -4.17,-11.86 3.3,-11.518 3.075,0 -3.673,11.125 4.58,12.254 -3.11,0 z m 5.024,0 0,-23.378 8.324,0 0,2.803 -5.315,0 0,6.99 4.87,0 0,2.802 -4.87,0 0,7.98 5.604,0 0,2.804 -8.613,0 z m 14.63,0 0,-20.575 -3.606,0 0,-2.803 10.22,0 0,2.803 -3.59,0 0,20.576 -3.024,0 z m 8.117,-0.597 0,-3.11 q 1.35,1.298 2.615,1.298 0.94,0 1.607,-0.665 0.665,-0.667 0.665,-1.607 0,-0.803 -0.376,-1.948 -0.377,-1.145 -2.035,-4.22 -1.64,-3.095 -2.136,-4.684 -0.496,-1.59 -0.496,-2.803 0,-2.358 1.333,-3.845 1.35,-1.504 3.435,-1.504 1.18,0 2.512,0.615 l 0,2.836 q -1.23,-0.735 -2.102,-0.735 -2.273,0 -2.273,2.24 0,0.82 0.375,1.983 0.393,1.145 2.034,4.204 1.656,3.042 2.135,4.648 0.495,1.59 0.495,2.82 0,2.393 -1.35,3.897 -1.333,1.486 -3.47,1.486 -1.537,0 -2.973,-0.905 z"
       style="-inkscape-font-specification:'Gill Sans MT Condensed, Condensed';fill:#f6fcff;fill-opacity:1"
       id="path6"
       inkscape:connector-curvature="0" />
  </g>
  <g
     class="rocket-svg"
     id="g8"
     style="fill:#f6fcff;fill-opacity:1;stroke:#f6fcff;stroke-width:0.51800001;stroke-opacity:1"
     transform="translate(3.1161429,6.6853051)">
    <g
       id="g10"
       style="fill:#f6fcff;fill-opacity:1;stroke:#f6fcff;stroke-width:0.62800002;stroke-opacity:1">
      <path
         d="m 87.143,1024.326 0.893,2.768 c -1.072,0.925 -2.232,0.56 -3.304,0.09 l 0.714,-2.68"
         transform="matrix(0.9667,0,0,0.74573,10,-638.363)"
         id="path12"
         style="fill:#f6fcff;fill-opacity:1;stroke:#f6fcff;stroke-opacity:1"
         inkscape:connector-curvature="0" />
      <path
         d="m 192.054,1006.648 0,-140.625 15.982,0 0,140.714"
         transform="matrix(0.9667,0,0,0.74573,-98.205,-635.966)"
         id="path14"
         style="fill:#f6fcff;fill-opacity:1;stroke:#f6fcff;stroke-opacity:1"
         inkscape:connector-curvature="0" />
      <path
         d="m 192.054,1018.612 c -1.62,1.6 -4.93,4.078 -5.268,5.268 0.922,0.685 2.113,0.47 3.035,-0.268 m 2.233,-5.357 -12.59,8.66 -9.196,4.465 m -3.304,1.07 2.143,-1.25 5,-5.534"
         transform="matrix(0.9667,0,0,0.74573,-98.29,-635.966)"
         id="path16"
         style="fill:#f6fcff;fill-opacity:1;stroke:#f6fcff;stroke-opacity:1"
         inkscape:connector-curvature="0" />
      <path
         d="m 175.18,1026.2 c -5.626,6.073 -5.716,5.984 -5.716,5.984 l 0,-0.18"
         transform="matrix(0.9667,0,0,0.74573,-98.29,-635.966)"
         id="path18"
         style="fill:#f6fcff;fill-opacity:1;stroke:#f6fcff;stroke-opacity:1"
         inkscape:connector-curvature="0" />
      <g
         id="g20"
         style="fill:#f6fcff;fill-opacity:1;stroke:#f6fcff;stroke-opacity:1">
        <path
           d="m 163.93,1034.148 6.25,0.09 15.534,-6.162 13.66,-8.928 -11.963,5.625 -18.303,7.678 -2.857,0.09 z m 20,-19.198 c -9.734,10.448 -9.823,10.448 -9.823,10.448 l 1.34,0.982 9.732,-10.268 z m 1.427,0.984 8.66,-8.93 2.322,-0.088 0,-1.875 -2.59,0.09 0.09,1.696 m -0.089,-1.787 -1.25,0.09 0.09,1.34 -8.483,8.48"
           transform="matrix(0.9667,0,0,0.74573,-98.29,-635.966)"
           id="path22"
           style="fill:#f6fcff;fill-opacity:1;stroke:#f6fcff;stroke-opacity:1"
           inkscape:connector-curvature="0" />
      </g>
      <path
         d="m 191.875,1009.148 0.268,10.625 c -0.11,1.636 0.588,1.386 1.16,1.43 l 2.054,-0.09"
         transform="matrix(0.9667,0,0,0.74573,-98.29,-635.966)"
         id="path24"
         style="fill:#f6fcff;fill-opacity:1;stroke:#f6fcff;stroke-opacity:1"
         inkscape:connector-curvature="0" />
      <g
         id="g26"
         style="fill:#f6fcff;fill-opacity:1;stroke:#f6fcff;stroke-opacity:1">
        <path
           d="m 192.054,1018.612 c -1.62,1.6 -4.93,4.078 -5.268,5.268 0.922,0.685 2.113,0.47 3.035,-0.268 m 2.233,-5.357 -12.59,8.66 -9.196,4.465 m -3.304,1.07 2.143,-1.25 5,-5.534"
           transform="matrix(-0.9667,0,0,0.74573,288.67,-635.9)"
           id="path28"
           style="fill:#f6fcff;fill-opacity:1;stroke:#f6fcff;stroke-opacity:1"
           inkscape:connector-curvature="0" />
        <path
           d="m 175.18,1026.2 c -5.626,6.073 -5.716,5.984 -5.716,5.984 l 0,-0.18"
           transform="matrix(-0.9667,0,0,0.74573,288.67,-635.9)"
           id="path30"
           style="fill:#f6fcff;fill-opacity:1;stroke:#f6fcff;stroke-opacity:1"
           inkscape:connector-curvature="0" />
        <g
           id="g32"
           style="fill:#f6fcff;fill-opacity:1;stroke:#f6fcff;stroke-opacity:1">
          <path
             d="m 163.93,1034.148 6.25,0.09 15.534,-6.162 13.66,-8.928 -11.963,5.625 -18.303,7.678 -2.857,0.09 z m 20,-19.198 c -9.734,10.448 -9.823,10.448 -9.823,10.448 l 1.34,0.982 9.732,-10.268 z m 1.427,0.984 8.66,-8.93 2.322,-0.088 0,-1.875 -2.59,0.09 0.09,1.696 m -0.089,-1.787 -1.25,0.09 0.09,1.34 -8.483,8.48"
             transform="matrix(-0.9667,0,0,0.74573,288.67,-635.9)"
             id="path34"
             style="fill:#f6fcff;fill-opacity:1;stroke:#f6fcff;stroke-opacity:1"
             inkscape:connector-curvature="0" />
        </g>
        <path
           d="m 191.875,1009.148 0.268,10.625 c -0.11,1.636 0.588,1.386 1.16,1.43 l 2.054,-0.09"
           transform="matrix(-0.9667,0,0,0.74573,288.67,-635.9)"
           id="path36"
           style="fill:#f6fcff;fill-opacity:1;stroke:#f6fcff;stroke-opacity:1"
           inkscape:connector-curvature="0" />
      </g>
      <path
         d="m 191.964,1017.362 15.982,0.09"
         transform="matrix(0.9667,0,0,0.74573,-98.205,-635.966)"
         id="path38"
         style="fill:#f6fcff;fill-opacity:1;stroke:#f6fcff;stroke-opacity:1"
         inkscape:connector-curvature="0" />
      <path
         d="m 99.196,1023.79 c 2.614,0.144 5.034,0.093 7.412,0"
         transform="matrix(0.9667,0,0,0.74573,-4.296,-637.963)"
         id="path40"
         style="fill:#f6fcff;fill-opacity:1;stroke:#f6fcff;stroke-opacity:1"
         inkscape:connector-curvature="0" />
      <g
         id="g42"
         style="fill:#f6fcff;fill-opacity:1;stroke:#f6fcff;stroke-opacity:1">
        <path
           d="m 86.16,1027.63 c 1.013,0.673 2.025,0.98 3.036,0 m 1.429,-3.214 0.982,2.59 c -1.07,0.924 -2.32,0.648 -3.393,0.177 l 0.893,-2.767 m -4.821,0.089 0.357,2.41 c -0.958,0.24 -1.973,0.38 -3.393,-0.535"
           transform="matrix(0.9667,0,0,0.74573,10,-638.363)"
           id="path44"
           style="fill:#f6fcff;fill-opacity:1;stroke:#f6fcff;stroke-opacity:1"
           inkscape:connector-curvature="0" />
        <g
           id="g46"
           style="fill:#f6fcff;fill-opacity:1;stroke:#f6fcff;stroke-opacity:1">
          <path
             d="m 83.75,1024.594 0.357,2.41 c -0.958,0.24 -2.152,0.47 -3.57,-0.445 m 1.249,-2.233 -1.072,1.16"
             transform="matrix(-0.9667,0,0,0.74573,179.804,-638.363)"
             id="path48"
             style="fill:#f6fcff;fill-opacity:1;stroke:#f6fcff;stroke-opacity:1"
             inkscape:connector-curvature="0" />
        </g>
      </g>
      <path
         d="m 192.054,889.505 15.803,0.09"
         transform="matrix(0.9667,0,0,0.74573,-98.27,-635.784)"
         id="path50"
         style="fill:#f6fcff;fill-opacity:1;stroke:#f6fcff;stroke-opacity:1"
         inkscape:connector-curvature="0" />
      <g
         id="g52"
         style="fill:#f6fcff;fill-opacity:1;stroke:#f6fcff;stroke-opacity:1">
        <g
           id="g54"
           style="fill:#f6fcff;fill-opacity:1;stroke:#f6fcff;stroke-opacity:1" />
        <g
           transform="matrix(0.9667,0,0,0.74573,-84.527,-636.462)"
           id="g58"
           style="fill:#f6fcff;fill-opacity:1;stroke:#f6fcff;stroke-opacity:1">
          <ellipse
             cx="180.179"
             cy="888.56702"
             rx="1.161"
             ry="1.563"
             id="ellipse60"
             style="fill:#f6fcff;fill-opacity:1;stroke:#f6fcff;stroke-opacity:1" />
        </g>
      </g>
      <g
         id="g66"
         style="fill:#f6fcff;fill-opacity:1;stroke:#f6fcff;stroke-opacity:1">
        <g
           id="g68"
           style="fill:#f6fcff;fill-opacity:1;stroke:#f6fcff;stroke-opacity:1">
          <path
             d="m 174.267,889.065 1.547,-0.332 m -0.568,0.3 1.546,-0.33 m -0.615,0.347 1.562,-0.38 m -0.583,0.316 1.562,-0.38"
             transform="matrix(-0.9667,0,0,0.74573,275.127,-636.645)"
             id="path70"
             style="fill:#f6fcff;fill-opacity:1;stroke:#f6fcff;stroke-opacity:1"
             inkscape:connector-curvature="0" />
        </g>
        <g
           transform="matrix(-0.9667,0,0,0.74573,275.06,-636.66)"
           id="g72"
           style="fill:#f6fcff;fill-opacity:1;stroke:#f6fcff;stroke-opacity:1">
          <ellipse
             ry="1.563"
             rx="1.161"
             cy="888.56702"
             cx="180.179"
             id="ellipse74"
             style="fill:#f6fcff;fill-opacity:1;stroke:#f6fcff;stroke-opacity:1" />
          <path
             d="m 179.91,888.88 c -0.356,0 -2.23,0.446 -2.23,0.446 l -7.22504,0.0251 m 8.83104,-0.73911 -4.16,0.09 -4.67033,0.36051"
             id="path76"
             style="fill:#f6fcff;fill-opacity:1;stroke:#f6fcff;stroke-opacity:1"
             inkscape:connector-curvature="0"
             sodipodi:nodetypes="cccccc" />
          <path
             sodipodi:nodetypes="cccccc"
             inkscape:connector-curvature="0"
             style="fill:#f6fcff;fill-opacity:1;stroke:#f6fcff;stroke-opacity:1"
             id="path5813"
             d="m 192.75313,888.75622 c 0.356,0 2.23,0.446 2.23,0.446 l 7.22504,0.0251 m -8.83104,-0.73911 4.16,0.09 4.67033,0.36051" />
        </g>
        <path
           d="m 174.583,888.828 4.027,-0.06 m -4.5,0.155 4.058,-0.06"
           transform="matrix(-0.9667,0,0,0.74573,275.06,-636.66)"
           id="path78"
           style="fill:#f6fcff;fill-opacity:1;stroke:#f6fcff;stroke-opacity:1"
           inkscape:connector-curvature="0" />
      </g>
    </g>
    <path
       d="m 96.608,994.645 c -4.988,4.786 -0.103,23.936 0.796,38.183 0.937,-14.114 7.11,-33.6 1.503,-38.095"
       transform="matrix(1.16855,0,0,0.90512,-19.47,-772.396)"
       id="path80"
       style="fill:#f6fcff;fill-opacity:1;stroke:#f6fcff;stroke-opacity:1"
       inkscape:connector-curvature="0" />
    <path
       d="m 96.608,994.91 c -2.914,9.36 0.844,13.305 1.15,20.064 0.488,-6.766 4.046,-13.746 1.15,-20.064"
       transform="matrix(1.16855,0,0,0.90512,-19.47,-772.396)"
       id="path82"
       style="fill:#f6fcff;fill-opacity:1;stroke:#f6fcff;stroke-opacity:1"
       inkscape:connector-curvature="0" />
  </g>
</svg>
